<?xml version="1.0" encoding="utf-8"?>
<!-- Generator: Adobe Illustrator 27.5.0, SVG Export Plug-In . SVG Version: 6.00 Build 0)  -->
<svg version="1.1" xmlns="http://www.w3.org/2000/svg" xmlns:xlink="http://www.w3.org/1999/xlink" x="0px" y="0px"
	 viewBox="0 0 2200 2200" style="enable-background:new 0 0 2200 2200;" xml:space="preserve">
<g id="Background">
	<rect style="fill:#FFFFFF;" width="2200" height="2200"/>
</g>
<g id="Objects">
	<g>
		<g>
			<path style="fill:#2A872A;" d="M1207.525,1599.769c22.51-42.57,70.48-68.14,118.57-74.46c50.28-6.61,101.12,4.62,150.05,17.98
				c19.53,5.33,39.13,11.05,59.31,12.71c11.57,0.95,23.44,0.47,34.73-2.08c-19.74,38.18-41.11,75.99-72.27,105.36
				c-42.49,40.04-102.06,61.33-160.3,57.28c-51.95-3.6-102.16-27.32-138.34-64.72L1207.525,1599.769z"/>
		</g>
		<g>
			<path style="fill:#2A872A;" d="M1029.204,1511.089c-36.18,37.4-86.39,61.12-138.34,64.72c-58.24,4.05-117.81-17.24-160.3-57.28
				c-31.16-29.37-52.53-67.18-72.27-105.36c11.29,2.55,23.16,3.03,34.73,2.08c20.18-1.66,39.78-7.38,59.31-12.71
				c48.93-13.36,99.77-24.59,150.05-17.98c48.09,6.32,96.06,31.89,118.57,74.46L1029.204,1511.089z"/>
		</g>
		<g>
			<path style="fill:#349735;" d="M1163.885,1140.309c-16.51,133.27-17.35,321.6-13.04,491.8c19.44-22.09,50.45-33.73,80.41-36.33
				c36.48-3.18,72.93,4.44,109.41,7.63c33.91,2.97,69.98,1.55,99.62-14.6c-30.31,32.58-69.43,51.64-109.06,52.85
				c-31.19,0.94-62.41-8.8-93.4-4.26c-14.904,2.185-28.454,8.135-40.143,15.425c-28.324,17.665-44.818,49.342-43.561,82.7
				c6.543,173.628,16.594,307.676,16.594,307.676c-68.11,59.78-122.93-0.14-122.93-0.14
				c16.494-148.444,25.177-299.923,26.027-451.561c0.186-33.173-17.066-64.103-45.611-81.003
				c-11.083-6.562-23.733-11.82-37.546-13.846c-30.99-4.54-62.21,5.2-93.4,4.26c-39.63-1.21-78.75-20.27-109.06-52.85
				c29.64,16.15,65.71,17.57,99.62,14.6c36.48-3.19,72.93-10.81,109.41-7.63c27.75,2.41,56.4,12.57,75.92,31.62v0.01
				c-2.06-113.36-8.51-226.44-19.35-338.03c0,0,10.948-48.629,60.445-48.629C1171.715,1100,1163.885,1140.309,1163.885,1140.309z"/>
		</g>
		<g>
			<path style="fill:#349735;" d="M1438.725,954.169c85.86,36.14,152.25,116.89,169.56,208.61
				c-79.23-51.89-175.58-77.17-270.08-71.03c48.89,29.09,98.62,79.66,130.05,131.25c-32.6-29.24-74.86-45.75-109.06-50.84
				c-41.77-6.21-84.35-5.32-126.11-11.58c-37.94-5.69-76.52-18.28-104.63-43.9c-35.79,25.83-81.98,36.38-126.6,39.1
				c-52.7,3.2-105.67-2.92-158.31,1.13c-52.63,4.06-107.29,20.1-142.78,59.17c21.68-72.12,69.14-136.14,131.59-178.17
				L1438.725,954.169z"/>
		</g>
		<g>
			<path style="fill:#E61426;" d="M1295.075,1050.809c42.45-7.77,82.62-28.28,113.31-58.66c41.09-40.67,64.65-98.49,63.68-156.3
				c-0.63-37.58-11.11-74.85-7.99-112.31c5.75-69.03,56.08-126.62,70.93-194.28c5.58-25.43,4.02-56.31-16.9-71.81
				c-12.17-9.02-28.63-10.65-43.46-7.56c-2.79,0.58-5.53,1.31-8.23,2.15h0c1.052-9.226,1.69-18.789,1.84-28.799
				c2.12-18.04,1.79-37.83-0.27-59.76c0.09-2.42,0.1-4.85,0.06-7.27c-0.63-33.83-12.64-66.81-30.62-95.46
				c-30.58-48.73-80.55-86.6-137.36-95.7c-29.1-4.67-59.69-0.98-86.94,10.13c-12.26-9.59-26.14-17.13-40.89-22.09
				c-13.61-4.58-27.83-7-41.99-9.39c-18.22-3.09-36.43-6.18-54.65-9.27c-14.91-2.52-30-5.06-45.07-3.85
				c-15.01,1.2-29.67,6.23-42.34,14.36c-26.68-5.86-54.58-2.5-81.76,0.9c-38.87,4.87-81.04,11.34-107.94,39.81
				c-10.71,11.34-17.9,25.12-22.56,39.99c-5.99,3.45-11.49,7.42-16.5,11.79c-0.01,0.01-0.02,0.02-0.03,0.03
				c-0.04,0.04-0.09,0.07-0.13,0.11c-40.69,34-66.65,83.95-66.76,136.98v0.88c0,0.82,0.01,1.65,0.03,2.47
				c0.15,17.38,1.45,33.57,3.67,48.76c-20.26-17.03-52.33-17.27-75.04-3.09c-24.24,15.13-26.36,35.5-28.94,63.96
				c-2.58,28.46,4.91,56.99,15.83,83.4c10.91,26.42,25.2,61.26,37.21,87.19c4.64,9.99,8.28,20.04,11.23,30.17
				c9.65,33.13,11.86,67.1,16.93,102.78c5.06,35.6,6.23,72.23,18.55,106.01c13.73,37.64,40.61,69.36,71.62,94.72
				c23.81,19.48,50.12,35.56,76.91,50.78c20.81,20.99,48.04,35.73,78.92,40.81c1.31,0.22,2.62,0.42,3.93,0.61
				c44.2,6.41,122.88,4.4,172.11-14.13c22.11,3.97,47.42,6.02,76.25,6.02C1225.325,1075.89,1265.345,1066.96,1295.075,1050.809
				L1295.075,1050.809z"/>
		</g>
		<g>
			<path style="fill:#A52030;" d="M1095.47,1069.87c0,0-11.02,7.94-87.63,16.4c-132.4,14.61-181.68-62.51-199.1-91.71
				c-17.41-29.19-13.86-251.7-13.28-279.29c0.57-27.6,4.12-62.78-32.44-116.27c-36.55-53.5-56.8-125.69-56.8-125.69
				c6.03,15.01,14.18,29.33,23.57,42.37c24.5,34.07,56.96,61.42,87.07,90.64c30.11,29.23,58.82,61.76,72.7,101.36
				c16.59,47.33,10.24,99.1,9.58,149.26c-0.67,50.15,6.73,105.02,42.98,139.68c18.28,17.48,42.22,27.87,67.12,33.01
				C1046.29,1056.82,1095.47,1069.87,1095.47,1069.87z"/>
		</g>
		<g>
			<path style="fill:#A52030;" d="M1465.32,455.89l-5.61,33.56c-7.66,48.4-27.86,77.54-29.49,79.82
				c-12.78,34.16-30.12,87.63-43.8,156.05c-24.77,123.88,39.92,312.32-159.45,347.91c-148.82,26.57-218.03-39.28-243.56-74.37
				c49.46,22.42,104.29,32.96,158.54,30.34c59.49-2.88,121.94-24.28,156.5-72.78c30.79-43.2,34.3-99.28,41.2-151.88
				c9.39-71.64,27.03-142.19,52.41-209.83c-30.98,17.75-64.55,31.24-98.17,43.52c-47.98,17.53-96.95,33.09-142.11,56.97
				c-87.07,46.04-143.29,80.01-180.97,171.02c40.07-110.36,128.03-211.82,236.46-256.82c47.8-19.83,98.96-30.83,146.39-51.53
				C1401.08,537.16,1446.46,504.08,1465.32,455.89z"/>
		</g>
		<path style="fill:#A52030;" d="M1465.32,455.89c0,0,71.773-27.483,72.214,55.77c0.238,44.835-24.494,69.556-64.828,170.167
			c-17.722,44.205-4.916,101.648-3.008,122.23c1.907,20.582,10.985,78.878-17.36,124.837
			c-28.345,45.959-85.587,112.922-149.277,116.888c0,0,63.168-37.089,72.472-219.179s56.416-256.634,73.102-313.674
			S1465.32,455.89,1465.32,455.89z"/>
		<g>
			<path style="fill:#A52030;" d="M717.062,500.014c-15.235-8.916-36.141,0.73-44.597,16.225
				c-8.455,15.496-7.315,34.425-3.708,51.705c11.386,54.543,44.105,101.727,73.06,149.332s59.266,109.672,56.058,165.299
				c0,0-1.562,110.415,34.48,155.335c0,0-117.658-67.356-143.889-151.515c0,0-20.774-134.377-28.228-183.699
				S599.553,571.95,595.69,532.818c-3.862-39.132-13.203-89.006,25.785-106.209c38.988-17.204,57.54-19.043,74.731,0.051
				L717.062,500.014z"/>
		</g>
		<g>
			<path style="fill:#A52030;" d="M1050.093,525.623c-26.884,24.967,65.139-33.718,101.454-38.945
				c36.315-5.228,73.253-5.944,109.257-13.001c36.004-7.057,72.082-21.366,96.517-48.734
				c23.897-26.766,34.302-65.012,27.256-100.195c0,0,29.924,66.415-129.607,107.696S1077.611,500.068,1050.093,525.623z"/>
		</g>
		<g>
			<path style="fill:#A52030;" d="M1134.712,596.188c-18.986-35.549-50.269-62.229-85.412-73.854l-5.035,6.896
				c0,0,53.789,58.015,61.24,89.16L1134.712,596.188z"/>
		</g>
		<g>
			<path style="fill:#A52030;" d="M1105.51,612.94c-62.94-60.4-135.96-95.57-223.18-96.21c-26.11-0.2-52.2,2.57-78.29,1.71
				c-26.09-0.85-52.8-5.63-74.89-19.55c-22.08-13.91-32.65-50.44-26.16-70.63c31.31,66.12,167.77,58.69,167.77,58.69
				c61.99,0.07,125.45,14.96,125.45,14.96C1047.82,515.25,1105.51,612.94,1105.51,612.94z"/>
		</g>
		<g>
			<path style="fill:#A52030;" d="M811.03,443.16c-34.84-12.92-64.15-40.2-79.4-74.1c-11.31-25.13-14.96-54.08-7.72-80.66
				c7.25-26.58,25.93-50.36,51.14-61.46C757.11,298.04,778.23,380.96,811.03,443.16z"/>
		</g>
		<g>
			<path style="fill:#A52030;" d="M1212.81,175.63c-24.71,6.28-46.81,22.7-59.73,44.72c-18.23,3.49-36.04,9.18-52.9,16.94
				c-13.2-23.34-29.12-45.55-50.01-62.35c-18.71-15.05-41.81-25.49-65.65-26.77c12.7-10.36,29.47-15.52,45.97-16.69
				c19.53-1.4,39.03,2.21,58.28,5.8c19.63,3.66,39.27,7.31,58.91,10.97c14.42,2.69,29,5.43,42.36,11.46
				C1198.51,163.54,1206.53,168.85,1212.81,175.63z"/>
		</g>
		<g>
			<path style="fill:#A52030;" d="M878.241,352.961c18.129,23.569,45.197,38.481,72.471,50.325
				c27.274,11.844,55.779,21.412,80.868,37.37c18.817,11.968,35.867,28.354,45.525,48.128l18.364-19.934
				c0,0-14.561-75.132-114.688-100.59S874.59,322.511,874.59,322.511L878.241,352.961z"/>
		</g>
		<g>
			<path style="fill:#A52030;" d="M1066.66,449.65c-4.56,21.12-17.17,40.34-34.53,53.16c-15.73-14.44-34.63-25.63-54.35-34.03
				c-29.19-12.42-50.795-17.128-81.805-23.848v13.547c0,0,113.566,33.442,148.29,70.75c34.724,37.308,0-2.832,0-2.832l39.646-42.393
				l-11.42-20.843L1066.66,449.65z"/>
		</g>
		<g>
			<path style="fill:#A52030;" d="M1111.855,329.236c8.207-3.289,16.223-7.538,22.672-13.876
				c6.449-6.338,11.232-14.98,11.843-24.314c0.855-13.076-6.629-25.544-16.564-33.247s-22.046-11.426-33.994-14.453
				c-54.699-13.854-111.986-15.96-167.449-6.156c-9.222,1.63-18.57,3.652-26.737,8.507c-8.167,4.855-15.095,13.012-16.61,22.858
				c-1.462,9.503,2.323,19.277,8.234,26.553c5.911,7.276,13.762,12.417,21.686,17.021c26.551,15.425,55.5,26.135,85.298,31.559
				c0,0,1.628-73.824,44.032-79.444c0,0,41.136-5.724,56.39,7.841L1111.855,329.236z"/>
		</g>
		<g>
			<path style="fill:#A52030;" d="M1216.24,368.95c-70.99,9.75-123.07,54.29-123.07,54.29c-18.32-51.15-88.43-75.68-88.43-75.68
				v-19.71c36.86,7.56,71.03,28.13,94.88,57.25c15.45-12.99,37.47-17.2,57.98-19.8c19.88-2.52,41.04-4.86,57.99-14.8L1216.24,368.95
				z"/>
		</g>
		<g>
			<path style="fill:#A52030;" d="M1103.415,245.401c0,0,17.368-26.988,86.574-24.865c29.777,0.913,60.515,14.838,75.427,40.628
				c14.378,24.866,10.729,58.853-8.599,80.1c-9.394,10.327-27.646,22.14-40.577,27.686c0,0,4.107-51.875-15.77-81.544
				c0,0-18.035-22.569-50.855-11.277C1149.615,276.129,1126.986,252.421,1103.415,245.401z"/>
		</g>
		<g>
			<path style="fill:#A52030;" d="M1152.69,278.73c11.01-7.26,26.17-7.67,37.56-1.02c11.4,6.65,18.49,20.05,17.59,33.21
				c-0.61,8.86-4.88,17.67-12.26,22.61c-11.58,7.77-27.18,4.55-40.62,8.27c4.83-8.7,4.23-20.28-1.77-28.29
				c-3.85-5.13-3.166-4.57-8.616-7.95C1144.574,305.56,1152.69,299.575,1152.69,278.73z"/>
		</g>
		<g>
			<path style="fill:#A52030;" d="M1109.259,312.398c-9.743,1.676-19.611,2.468-29.473,2.366
				c-13.564-0.141-27.709-2.213-38.907-10.614c-9.487-7.118-16.14-19.83-15.156-32.066c0,0-18.802,14.082-6.618,35.311
				c12.184,21.229,74.807,28.499,90.015,16.335L1109.259,312.398z"/>
		</g>
		<g>
			<path style="fill:#A52030;" d="M1377.15,306.42c-0.77,24.17-14.6,46.81-33.8,61.49c-18.5,14.14-41.49,21.44-64.66,24
				c0.22-13.19,0.74-29.69,0.89-42.31c18.57-1.6,36.28-12.53,45.3-28.86c9.85-17.8,8.61-41.33-3.55-57.64
				c-8.48-11.38-21.01-18.58-34.1-24.52c18.63-5.75,39.75-3.56,56.51,6.52C1364.65,257.67,1377.92,282.03,1377.15,306.42z"/>
		</g>
		<g>
			<path style="fill:#A52030;" d="M890.33,418.087c-36.627-0.592-60.799-14.448-87.646-39.371
				c-13.423-12.461-24.438-27.454-32.511-43.892c0,0,27.204,86.987,40.857,101.164c0,0,57.284,17.948,89.815,19.902L890.33,418.087z
				"/>
		</g>
		<g>
			<path style="fill:#1D5B1D;" d="M1563.3,1563.23c-23.49,47.75-84.2,147.36-183.57,151.92c-142.73,6.56-175.66-62.72-175.66-62.72
				c15.95-10.63,39.88-15.06,39.88-15.06c42.31,19.73,62.86,19.22,109.52,20.8c46.66,1.58,94.14-8.53,134.42-32.14
				C1516.2,1609.44,1540.26,1586.75,1563.3,1563.23z"/>
		</g>
		<g>
			<path style="fill:#1D5B1D;" d="M664.134,1420.758c23.49,47.75,84.2,147.36,183.57,151.92c142.73,6.56,175.66-62.72,175.66-62.72
				c-15.95-10.63-39.88-15.06-39.88-15.06c-42.31,19.73-62.86,19.22-109.52,20.8c-46.66,1.58-94.14-8.53-134.42-32.14
				C711.234,1466.968,687.174,1444.278,664.134,1420.758z"/>
		</g>
		<path style="fill:#1D5B1D;" d="M1147.241,1719.733c0.87,10.87,2.98,21.57,5.67,32.15c0.23-21.26,3.61-50.7,17.81-74.13
			c25.26-41.64,91.03-43.44,136.39-37.23c71.4,9.76,117.46-37.58,117.46-37.58l-8.81-5.56c-24.24,18.41-56.29,22.92-86.72,22.66
			c-30.44-0.25-60.95-4.61-91.21-1.31c-30.26,3.29-61.5,15.83-77.95,41.44C1148.711,1677.553,1145.591,1699.133,1147.241,1719.733z"
			/>
		<path style="fill:#1D5B1D;" d="M1170.72,2043.2c0,0-60.73,44.56-103.25,12.92c-0.01,0-0.01-0.01-0.02-0.01
			c-12.9-8.31-19.23-17.04-19.23-17.04c17.94-163.31,23.26-323.04,24.57-454.4c-2.29-15.85-6.94-32.81-15.8-47.43
			c-25.26-41.64-91.03-43.44-136.39-37.23c-71.4,9.76-117.46-37.58-117.46-37.58l8.81-5.56c24.24,18.41,56.29,22.92,86.72,22.66
			c30.44-0.25,60.95-4.61,91.21-1.31c30.26,3.29,61.5,15.83,77.95,41.44c2.03,3.16,3.79,6.45,5.31,9.86
			c0.03-14.77,0.03-29.07,0.01-42.86c-0.22-120.19-12.1-262.46-16.15-307.56h-0.38l-2.82-30.47c40.37-11.29,74.22-34.2,74.22-34.2
			c6.2,9.16,35.87,25.88,35.87,25.88l-4.21,53.62c-16.47-5.87-31.4-16.29-42.35-30.14c-0.1,0.05-0.19,0.1-0.29,0.16
			c-17.92,9.7-28.71,28.82-27.22,49.14c18.533,253.536,18.224,508.444-0.92,761.938c-3.021,40.009,35.47,70.872,73.626,58.463
			c2.429-0.79,4.864-1.676,7.304-2.66L1170.72,2043.2z"/>
		<g>
			<path style="fill:#1D5B1D;" d="M1458.529,964.685c-33.374,96.214-152.406,106.33-152.406,106.33s-53.624,24.658-115.202,29.374
				c-56.108,4.297-90.921-6.336-90.921-6.336s-45.526,23.038-163.802,17.022c-55.472-2.822-95.692-15.988-133.058-50.986
				l29.215-22.179c0,0,59.303,85.787,256.493,32.051c0,0,126.306,22.759,208.71-20.879c0,0,101.445-19.021,142.727-94.241
				L1458.529,964.685z"/>
		</g>
		<path d="M1614.071,1161.184c-14.002-73.05-58.068-138.689-118.287-181.863c-15.189-10.889-31.434-20.219-48.468-27.882
			c19.009-32.512,29.871-69.729,30.725-107.487c0.655-28.947-5.394-57.419-7.69-86.166c-2.181-27.305,0.899-53.309,9.748-79.226
			c16.205-47.466,45.3-89.664,58.398-138.327c6.284-23.35,9.156-50.978-3.618-72.791c-12.94-22.095-38.256-27.755-61.694-23.242
			c0.587-6.829,0.936-13.676,1.059-20.531c1.605-13.772,1.745-27.747,1.087-41.534c-0.297-6.229-0.768-12.448-1.345-18.657
			c-0.001-0.013-0.004-0.025-0.005-0.037c0.066-2.143,0.103-4.285,0.076-6.426c-0.639-50.509-25.304-99.373-59.551-135.577
			c-31.389-33.183-73.204-57.146-118.832-63.028c-27.446-3.538-55.812,0.03-81.646,10.009
			c-11.068-8.233-23.177-14.845-36.123-19.668c-14.843-5.53-30.505-8.201-46.063-10.836c-16.591-2.81-33.18-5.629-49.77-8.442
			c-16.328-2.769-32.94-6.017-49.579-5.029c-16.236,0.964-31.91,5.987-45.8,14.384c-32.5-6.279-66.685-1.236-99.436,3.585
			c-36.721,5.405-75.677,15.65-99.357,46.51c-7.641,9.958-13.218,21.089-17.2,32.879c-4.977,3.076-9.696,6.528-14.12,10.322
			c-0.479,0.27-0.948,0.616-1.396,1.063c-4.444,4.445-9.483,8.31-13.915,12.805c-4.764,4.831-9.275,9.912-13.503,15.218
			c-8.573,10.757-16.115,22.281-22.237,34.609c-12.163,24.493-18.833,51.361-19.022,78.731c0.029,13.466,0.762,26.924,2.222,40.298
			c-35.473-17.773-85.275-2.104-97.254,38.068c-3.051,10.232-3.997,21.062-4.978,31.648c-1.35,14.569-0.605,28.983,2.074,43.374
			c5.068,27.215,16.909,52.559,27.517,77.945c5.291,12.662,10.634,25.304,16.161,37.865c5.292,12.026,11.102,23.814,15.346,36.269
			c9.226,27.077,12.829,55.527,16.304,83.793c3.531,28.724,6.63,57.595,10.817,86.228c4.001,27.364,11.251,53.781,25.103,77.885
			c27.962,48.657,73.951,82.23,121.463,110.433c-45.934,33.064-83.46,77.556-107.88,128.676
			c-7.323,15.329-13.49,31.197-18.421,47.453c-1.713,5.646,5.968,10.258,10.028,5.838c36.899-40.17,92.727-54.683,145.448-57.886
			c64.102-3.894,128.769,5.904,192.418-5.484c1.872-0.335,3.742-0.691,5.61-1.063c8.08,84.895,13.618,170.028,16.637,255.253
			c0.737,20.795,1.313,41.596,1.755,62.399c-1.813-1.341-3.663-2.631-5.552-3.854c-7.655-4.953-15.954-8.869-24.492-12.041
			c-3.907-1.452-7.875-2.698-11.885-3.778c-21.873-38.862-63.297-63.329-106.126-72.528c-54.737-11.756-111.321,0.08-164.362,14.404
			c-30.704,8.292-62.548,18.547-94.57,11.64c-5.204-1.122-9.233,4.067-6.776,8.814c14.875,28.734,30.668,57.127,51.005,82.419
			c19.26,23.952,42.911,44.02,70.201,58.264c53.678,28.019,117.52,33.287,174.634,12.721c30.317-10.917,58.075-28.288,81.059-50.847
			c0.485,0.331,0.973,0.66,1.451,0.998c20.964,14.83,34.457,39.425,36.143,64.995c1.078,16.356,0.01,33.07-0.24,49.453
			c-0.263,17.205-0.628,34.409-1.093,51.61c-0.93,34.354-2.263,68.697-4.003,103.02c-3.462,68.285-8.531,136.489-15.265,204.53
			c-0.837,8.457-1.7,16.911-2.588,25.363c-0.444,4.221-0.894,8.441-1.351,12.661c-0.417,3.857-1.748,8.643-1.173,12.472
			c0.489,3.254,3.936,5.791,6.281,7.829c11.343,9.855,24.876,17.486,39.454,21.299c22.447,5.872,45.714,1.6,65.696-9.836
			c6.614-3.785,12.805-8.296,18.66-13.165c2.493-2.073,4.587-3.758,4.704-7.16c0.07-2.043-0.308-4.205-0.454-6.24
			c-2.194-30.6-4.128-61.22-5.944-91.844c-3.396-57.294-6.297-114.618-8.689-171.962c-0.658-15.782-2.459-32.023-1.287-47.796
			c0.961-12.933,4.98-25.654,11.448-36.878c6.561-11.384,15.821-21.113,26.652-28.642c41.627,40.867,99.306,64.811,157.829,63.536
			c61.019-1.33,119.927-28.719,160.337-74.395c24.189-27.342,42.087-59.396,58.787-91.655c2.463-4.757-1.582-9.934-6.776-8.814
			c-28.153,6.073-56.383-1.194-83.522-8.622c-27.925-7.643-55.988-14.911-84.708-18.892c-49.685-6.887-101.562-3.369-145.526,22.76
			c-21.052,12.512-39.239,29.831-51.291,51.229c-2.337,0.631-4.668,1.316-6.99,2.077c-14.513,4.752-28.346,11.844-40.034,21.632
			c-1.486-63.224-2.223-126.471-1.74-189.712c0.492-64.395,2.145-128.823,6.37-193.089c1.898-28.865,4.344-57.701,7.694-86.436
			c26.237,11.345,55.136,16.946,83.568,19.933c48.643,5.109,99.181,2.444,145.767,19.413c24.034,8.754,46.695,21.81,65.834,38.816
			c4.903,4.357,13.143-1.199,9.423-7.271c-29.256-47.755-69.226-91.317-115.925-123c66.55-1.238,133.271,12.696,193.638,40.875
			c18.728,8.742,36.796,18.827,54.108,30.114C1609.985,1171.043,1614.989,1165.971,1614.071,1161.184z M1525.803,475.843
			c9.719,18.902,6.267,42.364,0.911,61.974c-12.629,46.237-39.61,86.755-56.053,131.535c-8.419,22.93-13.458,46.816-13.147,71.318
			c0.356,28.101,6.31,55.728,8.079,83.723c3.058,48.405-10.468,96.592-38.39,136.294c-24.986,35.527-61.114,61.598-101.735,75.794
			c9.707-8.63,18.29-18.58,25.399-29.901c18.094-28.813,25.731-62.835,29.468-96.26c2.148-19.213,2.931-38.56,3.077-57.884
			c0.212-28.15,0.885-56.203,3.597-84.242c4.298-44.433,13.294-88.232,26.992-130.719c10.45-32.415,23.715-63.765,35.499-95.692
			c10.197-27.627,18.473-55.805,22.317-84.998C1492.349,451.733,1515.233,455.287,1525.803,475.843z M845.482,1039.104
			c-0.341-0.473-0.779-0.911-1.32-1.301c-5.137-5.23-9.864-10.859-14.095-16.838c-17.505-24.736-25.709-53.291-26.263-83.401
			c-0.786-42.758-2.161-85.504-2.775-128.265c-0.308-21.471-0.425-42.946-0.173-64.418c0.194-16.6,1.263-33.21-0.413-49.765
			c-4.945-48.848-28.328-91.705-50.485-134.572c-11.933-23.087-23.316-46.482-31.963-71.027c-5.116-14.522-9.27-29.35-12.403-44.388
			c12.553,18.357,31.355,30.839,52.16,38.314c24.635,8.851,51.161,10.152,77.099,9.98c28.223-0.187,56.247-0.892,84.406,1.67
			c31.412,2.858,62.481,8.723,92.857,17.188c11.725,7.724,22.854,16.329,33.139,25.924c23.287,21.727,41.965,48.3,53.137,78.176
			c-12.559,10.059-24.569,20.815-35.886,32.365c-51.912,52.981-84.742,120.592-96.621,193.672
			c-1.735,10.676-3.066,21.417-4.059,32.187c-4.689,33.818-6.162,69.24,3.709,102.309c8.859,29.679,27.426,54.669,53.476,71.469
			c16.161,10.422,34.094,17.573,52.722,22.519c-26.69,7.58-54.844,10.232-82.441,10.777c-30.096,0.594-62.484-0.031-91.246-9.827
			C878.345,1065.144,860.27,1053.764,845.482,1039.104z M901.859,453.789c-0.798-25.584-4.462-50.474-11.11-75.246
			c-3.614-13.467-6.589-26.7-8.427-40.171c12.255,10.278,30.068,16.29,43.146,20.846c16.425,5.722,33.191,10.424,49.887,15.273
			c15.479,4.495,31.563,8.224,45.841,15.916c21.232,11.439,38.25,29.389,51.201,49.533c5.149,8.008,9.735,16.388,13.687,25.05
			c1.132,2.482,1.938,4.223,2.81,6.475c-16.959,14.734-32.427,31.166-45.803,49.212c-7.661-6.432-15.706-12.442-24.065-18.019
			c-0.573-0.64-1.332-1.168-2.295-1.524c-12.262-8.012-25.165-15.112-38.484-21.26c-20.595-9.508-42.043-17.083-63.937-22.99
			C910.174,455.767,906.021,454.749,901.859,453.789z M1186.487,224.577c28.194,1.31,57.73,11.846,73.624,36.502
			c15.227,23.622,15.089,55.736-3.674,77.526c-8.815,10.237-20.099,16.798-32.384,21.446c-0.926-15.452-2.892-30.928-6.809-45.895
			c-1.51-5.772-3.245-11.721-5.826-17.149c-1.924-7.136-5.725-13.797-10.914-18.849c-12.491-12.16-31.587-14.594-47.803-9.518
			c-2.701-4.952-6.376-9.415-10.674-13.03c-8.722-7.338-19.228-11.859-30.053-15.301
			C1135.036,228.974,1160.677,223.378,1186.487,224.577z M1092.598,275.637c3.259,2.722,6.253,8.047,4.133,11.493
			c-3.107,5.05-12.419,6.646-18.284,6.899c-5.917,0.255-15.31-0.327-19.043-5.079c-1.944-2.475-1.028-5.648,0.681-8.853
			c2.176-4.081,5.693-8.824,10.326-10.254C1077.933,270.24,1086.566,270.599,1092.598,275.637z M1156.63,294.947
			c1.245-5.024,1.241-10.113,0.247-15.013c11.394-3.237,24.254-2.473,33.671,5.371c8.671,7.223,12.957,20.534,8.576,31.206
			c-6.14,14.957-25.021,17.785-39.129,18.116c-14.999,0.352-29.995-0.982-44.859-2.885c-0.84-0.107-1.679-0.227-2.518-0.338
			C1132.592,325.809,1151.755,314.613,1156.63,294.947z M1272.354,336.77c0.433,14.562,0.865,29.124,1.298,43.687
			c0.079,2.661,0.158,5.323,0.237,7.984c-15.4,3.23-30.97,5.847-45.862,9.552c-35.291,8.781-69.076,24.08-99.586,43.79
			c-7.656,4.946-15.124,10.204-22.389,15.731c-1.506-10.043-4.075-19.887-7.629-29.346c10.824-10.92,22.719-20.785,35.958-28.657
			c14.586-8.673,30.094-12.896,46.595-16.322c12.821-2.662,26.326-5.274,39.216-9.314c0.337-0.077,0.665-0.181,0.981-0.31
			c17.592-5.628,33.967-14.003,45.778-28.949C1268.942,342.098,1270.735,339.473,1272.354,336.77z M1062.988,304.304
			c9.91,2.931,27.17,2.573,37.632-4.233c1.103,7.138,1.868,14.335,2.364,21.527c-20.662,4.756-43.304,2.872-62.494-4.854
			c-10.174-4.096-23.646-12.628-21.756-25.424c0.038-0.255,0.089-0.503,0.135-0.754c0.196-0.545,0.303-1.064,0.349-1.56
			c3.221-11.92,16.78-17.851,28.079-19.149c1.656-0.19,3.319-0.31,4.984-0.388c-3.668,5.042-6.035,10.98-6.045,16.278
			C1046.218,295.483,1054.41,301.767,1062.988,304.304z M1012.68,311.258c5.719,7.62,14.645,12.977,23.273,16.513
			c7.798,3.196,16.032,5.448,24.413,6.791c0.208,0.063,0.425,0.118,0.653,0.163c17.945,3.546,35.967,6.698,54.115,9.018
			c18.13,2.318,37.032,4.322,55.277,2.216c14.474-1.67,29.487-7.577,37.263-20.067c2.62,12.504,3.953,25.251,4.586,38.012
			c-12.354,3.506-25.213,5.742-37.248,8.295c-16.833,3.572-32.603,8.458-47.423,17.387c-12.411,7.476-23.822,16.634-34.239,26.722
			c-13.911-28.973-37.29-53.236-67.062-66.738c-6.092-2.763-12.309-5.14-18.605-7.278
			C1008.546,331.915,1010.219,321.476,1012.68,311.258z M1098.515,478.541c1.248-0.494,2.315-1.345,2.944-2.484
			c0.658-0.552,1.306-1.114,1.968-1.66c1.479-0.391,2.756-1.311,3.415-2.756c38.641-31.001,84.76-53.275,132.304-63.947
			c40.727-9.142,85.464-13.485,117.937-42.579c8.14-7.293,15.064-16.192,19.974-26.044c-1.332,10.119-4.719,19.952-10.803,29.078
			c-15.999,23.998-44.707,37.561-71.064,46.74c-40.309,14.04-83.116,17.649-123.544,31.241
			c-26.785,9.005-52.707,20.894-76.833,35.662C1096.042,480.702,1097.269,479.612,1098.515,478.541z M1372.169,316.346
			c-3.281,18.005-14.424,33.711-28.846,44.664c-17.076,12.968-36.941,19.825-57.513,24.764c-0.745-25.055-1.489-50.111-2.233-75.166
			c-0.116-3.896-0.231-7.792-0.347-11.688c-0.016-0.522-0.089-1.006-0.205-1.458c-0.048-12.98-3.314-26.014-9.754-37.751
			c-2.783-5.073-6.047-9.7-9.702-13.903c33.977-5.25,70.807-2.156,94.964,25.138
			C1369.492,283.329,1375.171,299.873,1372.169,316.346z M1093.469,247.382c0.922,0.57,1.996,0.873,3.146,0.783
			c8.235,2.107,16.359,4.688,23.953,8.137c9.375,4.257,19.146,11.307,23.175,21.016c0.027,0.135,0.05,0.269,0.086,0.406
			c0.116,0.44,0.31,0.874,0.553,1.29c0.804,2.404,1.259,4.96,1.274,7.669c0.072,12.509-10.668,21.479-20.799,26.858
			c-3.263,1.732-6.653,3.243-10.136,4.545c-0.995-12.519-2.763-25.069-5.63-37.245c-1.26-6.739-5.854-12.61-11.526-16.408
			c-8.103-5.426-18.339-6.113-27.78-6.624c-15.615-0.82-33.066-1.316-46.609,7.838c-7.513,5.078-13.526,12.679-15.691,21.283
			c-0.066,0.15-0.134,0.298-0.191,0.458c-5.9,16.346-9.607,33.835-11.289,51.206c-15.204-4.535-30.685-8.234-45.804-13.085
			c-12.76-4.094-25.225-9.131-36.541-16.392c-10.643-6.829-21.438-16.211-24.732-28.934c-7.494-28.946,27.857-34.934,48.475-37.38
			c31.04-3.682,62.353-6.028,93.617-4.458c15.395,0.773,30.722,2.51,45.853,5.476
			C1082.348,244.896,1087.922,246.043,1093.469,247.382z M890.51,305.755c20.428,21.511,51.036,30.241,78.75,37.779
			c28.178,7.665,57.097,15.099,79.873,34.408c21.402,18.145,36.562,43.047,43.066,70.325c0.155,0.649,0.278,1.302,0.421,1.952
			c-11.533-22.771-28.368-43.66-48.006-58.805c-24.981-19.265-55.892-25.414-85.556-34.172c-15.27-4.508-30.646-9.075-45.344-15.248
			c-10.154-4.264-21.649-9.52-28.739-18.305c-2.618-3.244-4.356-7.054-4.631-11.226c-0.009-0.712-0.027-1.42-0.029-2.134
			c-0.001-0.29-0.023-0.566-0.057-0.835c-0.032-5.262,0.52-10.679,1.321-15.98C883.958,297.929,886.992,302.05,890.51,305.755z
			 M1050.087,1050.984c-27.551-11.141-51.322-30.086-64.923-56.837c-14.24-28.009-16.336-60.676-14.312-91.516
			c0.576-8.786,1.506-17.55,2.739-26.267c7.196-22.626,16.804-42.602,28.028-64.039c24.59-46.963,55.828-90.748,94.245-127.414
			c23.191-22.134,48.987-41.457,77.119-56.874c15.133-8.293,30.874-15.432,47.126-21.24c19.167-6.849,38.984-11.79,58.376-17.961
			c33.8-10.756,67.488-22.974,98.958-39.477c22.31-11.7,43.969-25.959,61.041-44.683c6.267-6.873,11.809-14.309,16.547-22.212
			c-2.574,11.57-5.769,23.026-9.486,34.373c-9.98,30.467-22.745,59.933-33.693,90.05c-13.453,37.005-24.042,74.914-30.583,113.768
			c-4.218,25.053-6.957,50.352-8.436,75.712c-1.466,25.139-0.957,50.283-1.814,75.432c-2.168,63.598-14.268,135.218-73.502,170.708
			c-1.536,0.92-3.09,1.8-4.654,2.662c-0.904,0.256-1.631,0.67-2.192,1.195c-33.278,17.644-72.337,22.672-109.516,23.429
			C1137.311,1070.688,1091.165,1067.596,1050.087,1050.984z M1436.936,487.973c-14.472,18.809-33.981,33.149-54.394,44.9
			c-29.248,16.837-61.011,29.036-92.936,39.723c-36.581,12.246-74.12,20.872-108.92,37.939
			c-29.193,14.317-56.205,32.872-80.633,54.293c-41.573,36.455-75.611,81.323-102.391,129.564
			c-5.947,10.713-11.539,21.626-16.754,32.716c5.161-24.671,12.677-48.841,22.983-71.846c14.449-32.253,34.01-62.032,57.786-88.171
			c44.409-48.821,101.299-83.796,160.567-111.727c27.056-12.751,54.737-24.078,82.503-35.176c12.422-4.965,24.86-9.89,37.236-14.967
			c21.512-8.825,43.655-16.733,63.958-28.189c21.101-11.905,39.078-28.244,50.875-49.584c2.227-4.028,4.237-8.174,6.031-12.412
			C1460.676,441.149,1453.537,466.398,1436.936,487.973z M1392.838,217.094c36.005,32.231,63.711,78.221,68.491,126.91
			c0.589,5.998,0.818,12.047,0.671,18.088c-0.035,0.288-0.044,0.594-0.036,0.911c-0.542,17.658-4.316,35.224-11.86,51.246
			c-10.283,21.838-26.724,38.651-47.435,50.821c-20.146,11.839-42.33,19.743-63.876,28.581c-12.09,4.959-24.239,9.773-36.373,14.622
			c-27.087,10.824-54.114,21.835-80.589,34.094c-39.771,18.416-78.59,39.885-113.591,66.351
			c-12.356-30.947-31.883-57.68-55.914-79.903c8.509-8.64,18.368-16.184,28.177-23.196c27.541-19.69,58.054-35.255,89.994-46.428
			c41.323-14.455,85.236-18.065,126.609-32.289c28.739-9.88,58.282-24.101,76.911-49.028c18.841-25.211,18.915-57.027,9.532-85.975
			c-0.287-0.884-0.71-1.612-1.225-2.202c-2.288-7.93-6.072-15.447-11.203-22.199c-11.689-15.38-28.748-26.442-47.28-31.715
			c-23.154-6.588-47.614-4.796-70.977-0.245c-15.22-12.228-34.485-19.287-54.204-21.868c-10.455-1.368-21.02-1.606-31.51-0.805
			c27.022-27.904,66.262-43.041,104.865-43.763C1316.769,168.264,1359.84,187.555,1392.838,217.094z M1044.285,136.41
			c20.102,0.952,40.168,5.577,59.968,8.936c19.148,3.248,38.658,5.744,57.432,10.826c14.155,3.832,27.356,9.848,39.499,17.833
			c-11.286,5.501-21.932,12.297-31.613,20.33c-7.529,6.248-14.203,13.282-20.278,20.909c-15.315,2.91-30.232,7.998-44.143,15.015
			c-24.551-32.713-51.922-65.411-89.992-82.533c-3.653-1.643-7.343-3.077-11.063-4.334
			C1016.711,138.041,1030.228,135.744,1044.285,136.41z M790.926,205.915c18.436-32.006,53.518-44.045,87.997-50.087
			c18.947-3.32,38.232-5.75,57.406-7.246c16.719-1.305,33.623-1.321,49.994,2.134c0.484,0.189,0.997,0.306,1.532,0.338
			c3.507,0.789,6.99,1.729,10.438,2.867c41.13,13.57,70.446,47.807,95.775,81.438c-31.974-7.86-65.06-10.31-97.919-9.274
			c-17.428,0.549-34.815,2.017-52.139,3.957c-14.368,1.608-28.674,3.036-42.148,8.628c-10.408,4.319-19.456,10.924-23.485,21.186
			c-2.753,4.961-4.353,10.817-5.673,16.276c-1.72,7.109-2.785,14.383-3.518,21.656c-0.483,4.798-1.092,9.797-0.842,14.692
			c0.29,23.072,4.31,45.044,10.307,67.296c6.364,23.615,10.119,47.067,11.104,71.387c-17.575-3.593-35.285-6.434-52.835-10.312
			c-7.21-1.593-14.404-3.435-21.474-5.629c-19.794-34.148-32.974-71.962-38.417-111.082c-2.784-20.012-3.617-40.505-2.039-60.658
			c0.926-11.834,2.859-23.813,6.38-35.25c0.19-0.42,0.323-0.854,0.398-1.297C784.1,219.631,787.097,212.563,790.926,205.915z
			 M763.759,313.425c2.402,24.045,7.462,47.799,15.263,70.674c3.977,11.663,8.647,23.105,13.927,34.238
			c1.696,3.576,3.468,7.115,5.302,10.622c-11.927-5.09-23.156-11.647-33.03-20.414c-17.156-15.232-29.782-35.319-35.629-57.535
			c-10.591-40.242,4.459-84.808,36.257-111.006C760.983,264.173,761.41,289.914,763.759,313.425z M716.526,300.607
			c-1.739,8.464-2.587,17.111-2.425,25.77c0.906,48.426,32.337,92.62,76.098,112.208c6.189,2.77,12.493,5.112,18.878,7.157
			c0.486,0.232,0.995,0.404,1.535,0.489c19.937,6.221,40.658,9.554,61.267,13.366c24.514,4.534,48.756,10.741,72.226,19.181
			c10.038,3.61,19.952,7.677,29.658,12.2c-38.59-7.414-77.813-10.53-117.301-9.878c-46.093,0.76-102.036,2.752-135.398-35.39
			c-16.951-19.38-22.483-46.073-22.559-71.162C698.683,348.864,704.925,323.523,716.526,300.607z M641.94,636.164
			c-10.198-23.257-20.095-46.699-29.504-70.287c-10.399-26.072-16.55-53.163-13.94-81.314c0.994-10.726,2.005-21.65,5.66-31.861
			c3.477-9.714,10.195-17.534,18.781-23.151c19.831-12.971,48.421-14.366,67.742,0.354c2.164,14.218,5.195,28.303,9.154,42.158
			c7.599,26.595,18.508,52.081,30.771,76.83c21.617,43.627,48.094,86.014,56.295,134.782c2.375,14.123,2.596,28.161,2.275,42.441
			c-0.49,21.768-0.545,43.544-0.354,65.316c0.381,43.419,1.743,86.82,2.667,130.228c0.047,2.229,0.089,4.455,0.133,6.677
			c-24.661-23.085-41.295-53.912-55.315-84.3c-16.716-36.231-29.771-74.025-46.535-110.231
			c-7.814-16.875-16.55-33.336-27.818-48.167c-1.557-5.259-3.281-10.467-5.225-15.6C652.365,658.518,646.885,647.442,641.94,636.164
			z M721.616,939.524c-15.037-20.833-25.425-43.871-31.039-68.945c-6.104-27.263-7.787-55.319-11.625-82.943
			c-3.153-22.692-5.282-45.562-9.234-68.136c12.28,22.435,21.389,47.001,30.782,70.285c15.034,37.267,29.81,75.311,51.756,109.182
			c11.013,16.998,23.971,32.964,39.872,45.615c0.491,9.686,1.457,19.317,3.658,28.901c3.343,14.564,8.914,28.714,16.348,41.676
			c1.125,1.962,2.309,3.889,3.521,5.799C780.064,999.03,746.24,973.64,721.616,939.524z M871.427,1570.23
			c-58.361-1.501-113.915-28.27-152.18-72.16c-20.236-23.211-35.799-49.999-50.148-77.168c22.997,2.333,45.937-2.16,68.324-8.087
			c27.031-7.156,53.889-14.783,81.498-19.466c49.267-8.356,101.663-7.156,146.068,18.129c17.212,9.801,32.345,22.833,43.628,38.953
			c-9.254-1.434-18.64-2.09-28.002-2.156c-42.61-0.299-84.457,10.869-127.112,9.506c-21.534-0.688-43.136-4.668-62.28-14.905
			c-6.007-3.212-11.997,4.39-7.271,9.423c19.531,20.803,43.5,37.387,70.565,46.723c12.761,4.402,26.169,7.028,39.651,7.754
			c16.065,0.866,32.069-1.323,47.992-3.138c16.058-1.831,32.625-3.568,48.694-0.924c9.892,1.628,19.549,4.992,28.495,9.648
			C979.854,1549.932,926.149,1571.637,871.427,1570.23z M1318.032,1532.625c54.949-10.185,111.046,4.007,163.846,18.458
			c25.37,6.943,51.316,13.211,77.509,10.562c-12.466,23.62-25.824,46.946-42.434,67.888c-18.376,23.169-40.592,42.597-66.7,56.601
			c-50.89,27.297-111.513,32.373-166.021,13.187c-28.029-9.866-53.715-25.807-75.19-46.285c9.25-4.812,19.264-8.14,29.487-9.711
			c32.162-4.942,64.315,6.083,96.554,4.158c27.481-1.641,54.09-11.342,76.889-26.641c11.887-7.977,22.763-17.359,32.556-27.79
			c4.687-4.992-1.213-12.663-7.271-9.423c-35.509,18.987-77.47,16.276-116.132,11.735c-33.399-3.923-67.859-9.309-101.246-4.183
			C1242.368,1559.051,1279.813,1539.71,1318.032,1532.625z M1145.08,1317.436c-2.373,66.784-2.807,133.632-2.22,200.451
			c0.334,38.079,1.025,76.154,1.985,114.222c0.124,4.929,6.639,8.264,10.243,4.243c25.231-28.15,64.319-36.13,100.592-35.255
			c42.212,1.017,83.802,11.813,126.164,9.108c10.427-0.666,20.78-2.13,30.856-4.625c-12.311,9.281-25.844,16.893-40.439,22.101
			c-11.721,4.182-23.978,6.942-36.407,7.756c-14.055,0.921-28.106-0.569-42.055-2.179c-28.87-3.332-56.986-5.699-84.258,6.435
			c-22.022,9.798-40.625,26.376-51.238,48.188c-5.24,10.769-8.456,22.221-9.722,34.121c-1.444,13.576,0.067,27.506,0.62,41.105
			c1.173,28.827,2.479,57.648,3.908,86.463c2.211,44.558,4.711,89.103,7.54,133.626c1.216,19.141,2.46,38.282,3.877,57.41
			c-18.257,15.22-40.871,25.812-65.134,22.55c-14.669-1.972-29.502-9.125-40.39-17.99c-1.697-1.382-3.385-2.812-4.977-4.333
			c12.541-113.664,20.449-227.828,23.879-342.129c0.874-29.108,1.458-58.224,1.752-87.344c0.125-12.385,0.716-24.799-1.272-37.073
			c-1.684-10.404-5.164-20.516-10.034-29.857c-10.364-19.88-27.435-35.274-47.665-44.692c-25.209-11.737-51.473-11.184-78.525-8.099
			c-14.906,1.7-29.867,3.73-44.906,3.268c-12.967-0.399-25.756-2.854-38.056-6.95c-15.718-5.235-30.259-13.228-43.411-23.131
			c25.225,6.219,52.064,5.847,77.889,3.283c40.427-4.013,82.419-13.342,122.777-4.017c0.613,0.142,1.223,0.299,1.834,0.448
			c0.614,0.291,1.266,0.443,1.927,0.475c18.017,4.675,35.155,12.903,48.687,25.875c-0.013-0.032-0.027-0.064-0.04-0.096
			c3.316,3.161,10.282,1.799,10.282-4.136c-1.617-87.912-5.827-175.776-12.774-263.429c-1.849-23.333-3.903-46.649-6.135-69.948
			c24.026-5.887,47.291-15.166,67.796-29.05c9.146,7.681,19.035,14.097,29.448,19.471
			C1150.517,1201.354,1147.141,1259.424,1145.08,1317.436z M1401.843,1086.304c-21.172-1.726-42.439-1.89-63.638-0.555
			c-5.8,0.365-8.342,7.998-3.028,11.181c42.096,25.215,79.24,60.532,108.597,100.415c-26.876-16.721-57.392-27.539-88.772-31.787
			c-51.304-6.945-104.093-3.952-154.34-17.914c-11.154-3.099-22.123-7.036-32.576-11.998c-0.472-0.342-1.011-0.597-1.59-0.771
			c-12.188-5.939-23.643-13.299-33.798-22.438c-1.838-1.654-5.057-2.518-7.271-0.938c-49.51,35.341-112.195,39.878-171.058,39.171
			c-61.144-0.735-123.927-5.837-182.844,14.247c-20.644,7.037-40.291,17.041-57.31,30.536c17.91-46.373,46.548-88.369,83.09-122.175
			c11.098-10.267,22.902-19.693,35.329-28.289c1.434,0.825,2.867,1.644,4.301,2.461c11.362,11.32,24.478,20.875,38.839,28.018
			c27.897,13.876,58.914,17.066,89.663,18.063c34.339,1.114,69.474-1.059,102.91-9.33c7.577-1.875,15.046-4.141,22.364-6.86
			c1.059-0.393,1.888-0.985,2.519-1.692c13.522,2.432,27.19,3.95,40.618,4.931c46.199,3.375,95.529,2.276,139.567-13.618
			c8.041-2.902,15.806-6.358,23.219-10.361c0.013-0.002,0.025-0.003,0.038-0.005c49.816-9.314,96.494-35.53,129.111-74.509
			c5.451-6.514,10.51-13.343,15.177-20.427c63.688,28.61,115.425,81.132,143.661,144.997c6.188,13.998,11.083,28.564,14.747,43.426
			C1539.633,1113.824,1471.502,1091.983,1401.843,1086.304z"/>
	</g>
</g>
</svg>
